<?xml version="1.0" standalone="no"?>
<!DOCTYPE svg PUBLIC "-//W3C//DTD SVG 20010904//EN"
 "http://www.w3.org/TR/2001/REC-SVG-20010904/DTD/svg10.dtd">
<svg version="1.0" xmlns="http://www.w3.org/2000/svg"
 width="1920.000000pt" height="1920.000000pt" viewBox="0 0 1920.000000 1920.000000"
 preserveAspectRatio="xMidYMid meet">
<metadata>
Created by potrace 1.14, written by Peter Selinger 2001-2017
</metadata>
<g transform="translate(0.000000,1920.000000) scale(0.100000,-0.100000)"
fill="#000000" stroke="none">
<path d="M9565 14989 c-4 -5 -12 -8 -18 -6 -7 2 -22 0 -34 -4 -14 -5 -23 -5
-23 1 0 6 -9 6 -22 2 -13 -5 -40 -8 -60 -7 -21 0 -38 -3 -38 -8 0 -4 -5 -5
-10 -2 -6 4 -18 1 -27 -7 -12 -9 -15 -9 -9 0 9 15 -6 16 -22 0 -9 -9 -12 -9
-12 1 0 7 -5 9 -12 4 -21 -12 -40 -13 -62 -1 -19 10 -20 10 -7 -6 12 -14 12
-16 -4 -10 -14 6 -16 4 -10 -7 7 -11 6 -12 -6 -2 -12 10 -18 10 -29 0 -10 -10
-11 -9 -5 1 6 11 3 12 -11 5 -11 -5 -35 -10 -54 -12 -19 -1 -37 -7 -41 -13 -6
-9 -12 -8 -23 1 -11 9 -16 10 -16 2 0 -6 -3 -10 -7 -10 -22 4 -54 -2 -50 -8 3
-5 -22 -9 -56 -11 -33 -1 -66 -7 -73 -13 -7 -6 -27 -11 -44 -11 -17 -1 -33 -5
-36 -10 -3 -4 -16 -8 -29 -8 -13 0 -25 -5 -27 -10 -2 -6 -13 -12 -26 -13 -12
0 -22 -4 -22 -7 0 -3 -11 -7 -26 -8 -14 -1 -23 2 -20 7 3 5 -6 9 -19 9 -14 0
-28 -4 -31 -9 -3 -5 -14 -9 -25 -9 -11 0 -27 -6 -35 -14 -7 -8 -23 -12 -34 -9
-11 3 -27 0 -35 -7 -8 -6 -19 -9 -25 -5 -5 3 -10 1 -10 -6 0 -7 -3 -9 -7 -6
-3 4 -13 1 -21 -6 -13 -10 -14 -9 -7 3 5 9 0 8 -13 -4 -17 -14 -22 -16 -22 -5
0 12 -2 12 -9 0 -5 -8 -16 -11 -25 -8 -10 4 -16 1 -16 -8 0 -7 -5 -17 -12 -21
-7 -4 -8 -3 -4 4 5 8 0 11 -16 8 -13 -2 -22 -8 -21 -13 1 -4 -18 -8 -42 -8
-24 0 -43 -4 -42 -10 1 -5 -3 -9 -10 -8 -6 2 -29 -5 -50 -14 -21 -9 -41 -16
-45 -15 -5 1 -8 -2 -8 -7 0 -5 -7 -12 -16 -15 -9 -3 -12 -2 -8 5 3 6 -3 5 -15
-3 -12 -7 -21 -16 -21 -19 0 -3 -11 -5 -24 -4 -17 2 -23 -1 -20 -10 3 -7 -2
-12 -13 -12 -36 0 -44 -3 -37 -15 5 -7 3 -8 -5 -4 -7 5 -21 0 -33 -11 -14 -12
-18 -13 -13 -3 7 12 6 13 -7 3 -8 -7 -18 -10 -21 -6 -4 3 -7 1 -7 -6 0 -8 -6
-11 -16 -7 -8 3 -12 2 -9 -4 4 -6 -5 -10 -20 -10 -15 0 -24 -4 -20 -10 5 -9
-15 -15 -37 -11 -5 0 -8 -3 -8 -9 0 -5 -8 -10 -17 -10 -10 0 -27 -7 -37 -15
-10 -8 -23 -12 -29 -8 -6 3 -7 1 -3 -5 4 -7 2 -13 -3 -13 -6 -1 -16 -2 -21 -3
-6 0 -15 -8 -20 -16 -5 -8 -10 -11 -10 -7 0 4 -10 2 -22 -5 -13 -6 -30 -13
-38 -14 -8 -2 -16 -8 -18 -13 -2 -6 -12 -11 -23 -11 -10 0 -19 -5 -19 -12 0
-6 -3 -9 -6 -5 -4 3 -26 -7 -50 -24 -24 -16 -44 -25 -44 -18 0 6 -9 1 -21 -12
-11 -13 -17 -17 -13 -9 4 9 -3 6 -17 -6 -13 -12 -30 -19 -38 -16 -8 3 -11 0
-7 -7 6 -10 -12 -16 -37 -12 -4 0 -6 -5 -5 -11 2 -7 -3 -12 -9 -10 -7 1 -13
-3 -13 -9 0 -5 -5 -7 -10 -4 -6 3 -13 -1 -16 -9 -3 -9 -10 -13 -15 -10 -5 3
-9 0 -9 -5 0 -6 -9 -11 -21 -11 -11 0 -18 -4 -14 -9 3 -5 -4 -11 -15 -13 -12
-2 -20 -7 -20 -12 1 -4 -18 -17 -40 -28 -23 -12 -44 -27 -47 -34 -3 -8 -9 -12
-13 -9 -4 3 -10 -2 -14 -10 -3 -8 -15 -15 -26 -15 -13 0 -19 -4 -14 -11 4 -8
-1 -9 -16 -4 -15 5 -20 4 -16 -4 4 -6 2 -11 -4 -11 -6 0 -8 -4 -5 -10 3 -5 0
-7 -8 -4 -8 3 -17 -2 -21 -11 -4 -10 -12 -15 -22 -11 -8 3 -12 2 -9 -4 6 -9
-8 -15 -29 -11 -5 1 -6 -5 -2 -14 3 -9 2 -13 -4 -10 -6 3 -10 1 -10 -5 0 -6
-4 -9 -8 -6 -5 3 -21 -6 -38 -20 -16 -14 -38 -33 -49 -42 -11 -10 -24 -20 -30
-22 -5 -3 -9 -9 -7 -13 1 -5 -2 -6 -7 -3 -5 4 -17 -4 -25 -16 -9 -12 -16 -19
-16 -14 0 5 -16 -10 -36 -33 -20 -22 -41 -38 -48 -34 -6 3 -8 3 -4 -1 8 -10
-14 -36 -25 -29 -4 2 -10 -3 -13 -11 -3 -9 -10 -13 -15 -10 -5 3 -9 0 -9 -5 0
-6 -7 -11 -15 -11 -9 0 -12 -6 -8 -16 4 -12 2 -15 -8 -12 -7 2 -27 -10 -43
-28 -16 -18 -33 -31 -38 -28 -7 5 -12 -10 -9 -29 1 -5 -3 -6 -9 -2 -5 3 -28
-13 -51 -37 -23 -24 -45 -42 -50 -41 -5 2 -9 -2 -9 -9 0 -6 -19 -29 -42 -51
-24 -22 -36 -37 -28 -33 8 4 6 1 -4 -8 -10 -8 -22 -13 -26 -11 -4 3 -7 -1 -6
-8 0 -6 -3 -13 -8 -14 -5 -1 -17 -14 -27 -30 -10 -15 -19 -25 -19 -20 0 4 -8
-1 -18 -10 -11 -10 -17 -21 -15 -25 2 -4 -6 -9 -17 -13 -11 -3 -19 -12 -17
-18 1 -7 -4 -11 -10 -10 -7 2 -13 -1 -13 -6 0 -17 -46 -61 -55 -53 -5 4 -5 2
-2 -4 3 -6 -2 -17 -11 -26 -9 -8 -25 -27 -36 -41 -10 -15 -23 -24 -29 -20 -5
3 -7 2 -4 -4 3 -5 -7 -24 -23 -42 -17 -18 -30 -35 -30 -39 0 -4 -8 -15 -17
-24 -28 -26 -43 -46 -43 -58 0 -5 -4 -10 -10 -10 -5 0 -10 -7 -10 -16 0 -8 -3
-13 -7 -11 -8 5 -26 -10 -34 -28 -2 -5 -8 -9 -12 -7 -5 1 -6 -2 -3 -7 4 -5 -1
-16 -9 -24 -8 -9 -15 -20 -15 -26 0 -6 -9 -15 -20 -21 -11 -6 -20 -17 -20 -25
0 -8 -5 -15 -11 -15 -5 0 -7 -5 -4 -10 3 -6 -1 -13 -9 -16 -9 -3 -16 -12 -16
-19 0 -6 -11 -24 -24 -38 -13 -14 -21 -28 -18 -31 3 -4 -3 -13 -14 -21 -10 -8
-15 -15 -11 -15 5 0 2 -7 -5 -15 -31 -34 -38 -45 -31 -45 4 0 -1 -7 -11 -15
-11 -8 -16 -15 -10 -15 5 0 3 -4 -4 -9 -7 -4 -15 -14 -16 -22 -6 -28 -20 -54
-39 -71 -10 -9 -16 -22 -12 -27 3 -6 -1 -11 -9 -11 -10 0 -13 -6 -9 -17 4 -11
3 -14 -5 -9 -7 4 -12 1 -12 -8 0 -9 -5 -16 -11 -16 -5 0 -7 -4 -4 -10 3 -5 2
-10 -3 -10 -4 0 -14 -16 -22 -35 -8 -19 -18 -35 -22 -35 -5 0 -7 -4 -4 -9 3
-5 -1 -12 -10 -15 -10 -4 -14 -14 -11 -26 3 -11 0 -18 -7 -17 -6 1 -10 -4 -9
-10 2 -7 -2 -13 -8 -13 -5 0 -7 -4 -4 -10 3 -5 2 -10 -3 -10 -9 0 -25 -37 -23
-52 1 -5 -4 -8 -9 -8 -6 0 -10 -7 -10 -15 0 -8 -5 -15 -12 -15 -6 0 -9 -3 -5
-6 3 -4 -2 -23 -13 -44 -11 -21 -16 -41 -12 -45 4 -5 2 -5 -4 -2 -7 4 -14 0
-18 -8 -3 -8 0 -15 6 -15 7 0 7 -4 -1 -13 -6 -8 -8 -17 -4 -20 3 -4 1 -7 -6
-7 -7 0 -9 -4 -6 -10 3 -5 1 -10 -5 -10 -7 0 -9 -7 -6 -16 3 -8 2 -12 -4 -9
-9 5 -15 -16 -11 -38 1 -5 -3 -6 -9 -2 -9 6 -14 -7 -11 -27 0 -5 -4 -8 -10 -8
-6 0 -9 -6 -7 -12 3 -7 -5 -21 -16 -31 -12 -10 -15 -16 -8 -12 6 3 12 1 12 -4
0 -6 -4 -11 -10 -11 -5 0 -10 -9 -10 -21 0 -13 -4 -18 -12 -13 -6 4 -8 3 -5
-3 4 -6 0 -24 -8 -39 -8 -16 -12 -37 -9 -48 4 -12 2 -16 -5 -12 -6 4 -11 2
-11 -3 0 -22 -1 -27 -16 -49 -8 -12 -12 -27 -9 -32 3 -6 1 -10 -5 -10 -6 0 -9
-4 -6 -9 3 -5 0 -11 -8 -14 -9 -3 -12 -15 -9 -31 3 -15 1 -26 -6 -26 -5 0 -8
-7 -5 -15 4 -8 1 -15 -5 -15 -6 0 -8 -7 -5 -15 4 -9 0 -15 -7 -15 -11 0 -11
-3 1 -10 13 -8 13 -10 -1 -10 -11 0 -15 -8 -13 -25 1 -14 -4 -32 -13 -40 -9
-9 -10 -15 -3 -15 6 0 4 -8 -6 -17 -11 -11 -13 -18 -5 -21 7 -2 6 -8 -4 -18
-8 -8 -11 -22 -8 -31 4 -10 2 -14 -4 -10 -7 5 -9 0 -6 -13 3 -11 1 -20 -5 -20
-6 0 -9 -8 -7 -17 1 -10 -4 -29 -12 -42 -8 -13 -10 -20 -4 -17 6 4 11 2 11 -3
0 -6 -5 -11 -12 -11 -6 0 -8 -3 -5 -7 4 -3 1 -13 -6 -21 -10 -13 -9 -14 3 -7
12 6 12 5 3 -5 -6 -7 -9 -18 -7 -25 3 -7 0 -16 -7 -21 -8 -5 -10 -3 -4 6 5 9
4 11 -4 6 -6 -4 -8 -13 -4 -19 11 -18 12 -37 2 -37 -5 0 -9 -11 -9 -25 0 -14
-5 -25 -10 -25 -7 0 -7 -6 0 -19 7 -14 7 -22 0 -26 -6 -4 -8 -11 -5 -16 4 -5
2 -9 -4 -9 -6 0 -8 -6 -5 -14 3 -8 1 -17 -4 -20 -5 -3 -8 -19 -6 -36 2 -19 -1
-30 -9 -30 -8 0 -7 -4 3 -10 13 -8 12 -10 -4 -10 -15 0 -17 -3 -8 -12 7 -7 8
-17 2 -28 -5 -9 -7 -35 -6 -58 2 -23 -1 -42 -5 -42 -4 0 -6 -9 -4 -20 2 -11 0
-20 -4 -20 -4 0 -7 -15 -6 -32 0 -18 -4 -36 -10 -40 -6 -5 -4 -8 4 -8 11 0 10
-4 -5 -16 -10 -8 -13 -13 -6 -9 13 7 17 -11 3 -19 -5 -3 -9 -23 -9 -43 0 -21
-1 -41 -2 -45 -2 -5 -3 -11 -4 -15 -1 -5 -5 -13 -9 -20 -4 -6 -2 -15 4 -19 9
-5 7 -11 -6 -21 -11 -7 -14 -13 -8 -13 6 0 14 -7 17 -16 4 -10 2 -13 -6 -8 -7
5 -9 -1 -6 -19 3 -15 0 -28 -6 -31 -7 -3 -6 -5 2 -5 8 -1 10 -6 6 -13 -5 -7
-7 -27 -5 -45 2 -22 -2 -33 -11 -33 -11 0 -10 -2 1 -9 10 -6 10 -10 1 -16 -9
-6 -9 -10 1 -16 12 -7 12 -9 0 -9 -11 0 -11 -3 0 -17 10 -11 10 -14 2 -9 -17
9 -17 -6 0 -23 10 -11 10 -13 0 -7 -10 6 -13 -42 -13 -224 0 -182 3 -230 13
-224 9 6 10 4 0 -7 -17 -17 -17 -43 0 -33 7 5 7 1 -2 -10 -12 -14 -12 -19 -2
-26 11 -6 11 -9 0 -13 -12 -5 -12 -6 0 -6 11 -1 11 -4 0 -18 -12 -14 -12 -16
0 -8 11 6 13 4 8 -8 -3 -9 -2 -19 2 -22 5 -3 5 -21 1 -40 -5 -24 -4 -35 4 -35
7 0 7 -3 1 -8 -5 -4 -10 -14 -10 -22 0 -8 5 -18 10 -22 6 -5 5 -8 -3 -8 -8 0
-10 -5 -6 -12 4 -6 8 -28 9 -47 1 -20 5 -44 9 -53 4 -9 5 -21 2 -27 -4 -5 -2
-12 3 -16 6 -3 8 -12 4 -20 -3 -9 1 -15 8 -15 11 0 11 -3 -1 -10 -13 -9 -13
-10 0 -10 13 0 13 -1 0 -10 -8 -5 -10 -10 -4 -10 16 0 24 -36 11 -49 -8 -8 -7
-11 2 -11 7 0 10 -4 6 -9 -3 -5 -1 -12 4 -16 7 -4 7 -15 1 -30 -7 -18 -6 -24
2 -22 7 1 12 -18 12 -54 1 -44 4 -55 15 -51 11 4 11 1 2 -16 -7 -12 -8 -22 -3
-22 5 0 8 -13 7 -30 -1 -16 2 -30 7 -30 5 0 6 -4 3 -10 -3 -5 0 -10 7 -10 9 0
9 -3 -2 -10 -8 -5 -10 -10 -3 -10 6 0 10 -8 8 -17 -1 -10 2 -24 8 -30 5 -7 5
-13 0 -13 -5 0 -9 -9 -9 -20 0 -11 4 -20 9 -20 4 0 5 -4 2 -10 -3 -5 -2 -10 3
-10 6 0 9 -15 8 -34 -1 -19 2 -32 5 -30 8 5 21 -23 24 -51 4 -41 18 -85 26
-85 5 0 9 -5 9 -11 0 -5 -5 -7 -11 -3 -6 3 -4 -8 5 -24 9 -17 16 -40 16 -52 0
-12 4 -19 9 -16 5 4 8 -2 6 -11 -1 -10 3 -24 9 -32 8 -11 8 -13 0 -8 -8 4 -11
-2 -10 -18 0 -14 4 -25 9 -25 4 0 6 -3 5 -7 -1 -5 6 -25 15 -47 9 -21 17 -42
17 -47 0 -5 5 -9 11 -9 5 0 8 -4 4 -9 -3 -5 -1 -12 5 -16 6 -4 8 -11 5 -16 -4
-5 -1 -9 5 -9 6 0 9 -4 6 -9 -3 -5 1 -11 9 -15 8 -3 15 -14 15 -24 0 -10 4
-22 10 -28 5 -5 10 -26 12 -47 1 -20 6 -37 11 -37 4 0 5 -4 2 -10 -3 -6 0 -10
7 -10 9 0 9 -3 -2 -10 -8 -5 -10 -10 -3 -10 6 0 9 -9 6 -20 -3 -12 0 -20 6
-20 7 0 9 -4 6 -10 -3 -6 -2 -10 3 -10 5 0 8 -10 8 -22 -1 -13 4 -22 11 -21 7
2 10 -6 8 -17 -2 -10 3 -24 11 -30 7 -7 11 -16 8 -21 -3 -5 2 -9 11 -9 9 0 14
-4 11 -9 -3 -5 3 -20 14 -33 11 -14 16 -28 13 -32 -3 -3 1 -6 10 -6 11 0 15
-8 12 -27 -1 -16 4 -36 13 -45 10 -12 11 -18 3 -18 -7 0 -4 -9 8 -21 10 -11
18 -31 16 -44 -1 -13 4 -26 11 -29 8 -3 14 -12 14 -21 0 -8 5 -15 11 -15 8 0
7 -5 -1 -15 -11 -13 -10 -14 3 -9 11 4 21 -5 33 -28 10 -18 18 -37 19 -41 0
-5 11 -17 25 -28 14 -12 19 -18 13 -14 -9 4 -11 1 -7 -9 3 -9 9 -14 14 -11 10
6 34 -41 26 -54 -4 -5 3 -15 14 -21 11 -6 18 -15 15 -21 -4 -5 -3 -9 2 -9 8 0
37 -56 39 -75 2 -22 17 -45 25 -39 5 3 9 2 8 -3 -4 -13 23 -63 33 -63 5 0 6
-4 3 -10 -3 -5 1 -10 9 -10 9 0 16 -9 16 -20 0 -11 5 -20 11 -20 5 0 7 -4 4
-10 -3 -5 0 -10 9 -10 9 0 13 -8 12 -25 -2 -13 1 -22 6 -19 5 3 12 -3 15 -15
3 -12 9 -21 14 -21 5 0 9 -7 9 -16 0 -8 4 -12 10 -9 6 3 10 1 10 -5 0 -6 21
-33 47 -60 27 -27 64 -68 83 -90 19 -22 47 -53 63 -69 15 -16 27 -34 27 -40 0
-6 5 -11 10 -11 6 0 10 -6 10 -14 0 -7 10 -21 23 -30 12 -9 16 -14 9 -10 -17
8 3 -28 36 -66 12 -14 25 -33 28 -43 3 -9 9 -15 13 -13 4 3 18 -12 30 -34 12
-21 31 -42 43 -46 13 -4 17 -9 9 -13 -7 -5 -3 -12 13 -20 13 -8 27 -22 29 -33
3 -11 10 -17 16 -13 6 3 11 1 11 -5 0 -16 26 -40 35 -32 4 4 6 2 4 -3 -4 -17
13 -45 23 -39 5 3 12 -3 15 -15 3 -11 9 -18 14 -15 5 3 9 -3 9 -12 0 -10 3
-15 6 -11 8 7 53 -36 47 -45 -2 -4 8 -10 22 -14 14 -3 25 -12 25 -20 0 -8 7
-14 16 -14 8 0 13 -4 10 -8 -3 -5 6 -15 20 -23 14 -7 30 -21 35 -31 5 -10 16
-18 24 -18 8 0 15 -7 15 -17 0 -9 3 -14 6 -10 3 3 16 -4 28 -16 51 -50 119
-102 129 -99 7 2 9 1 5 -3 -8 -9 10 -28 35 -38 9 -3 17 -11 17 -17 0 -5 5 -10
10 -10 6 0 21 -11 34 -25 13 -13 26 -22 29 -18 4 3 7 1 7 -6 0 -7 5 -9 10 -6
6 3 10 -1 10 -9 0 -9 8 -16 19 -16 10 0 27 -11 37 -25 10 -14 22 -25 26 -25 7
0 15 -6 76 -57 15 -13 35 -23 45 -23 10 0 15 -4 12 -10 -3 -5 -1 -10 5 -10 6
0 8 -5 4 -12 -4 -6 -3 -8 4 -4 6 3 18 -1 26 -10 9 -8 16 -13 16 -9 0 5 10 -2
43 -31 7 -6 15 -11 19 -13 20 -5 68 -37 68 -44 0 -5 5 -5 10 -2 6 3 10 2 10
-3 0 -9 21 -18 59 -27 8 -2 18 -10 22 -17 5 -7 9 -8 9 -3 0 6 5 2 11 -8 5 -9
21 -17 35 -17 17 0 23 -4 18 -12 -5 -8 -2 -9 9 -5 10 4 16 2 14 -6 -1 -6 8
-13 21 -15 12 -2 22 -10 22 -18 0 -8 4 -12 10 -9 5 3 20 -1 33 -10 13 -8 27
-12 32 -8 4 5 5 2 1 -4 -5 -9 0 -13 12 -13 11 0 25 -7 32 -15 7 -8 19 -15 26
-15 8 0 14 -5 14 -11 0 -5 5 -7 10 -4 6 3 10 1 10 -6 0 -7 3 -10 6 -6 4 3 13
-1 21 -9 8 -8 19 -12 24 -9 5 4 9 1 9 -4 0 -6 3 -10 8 -9 4 1 21 -5 37 -12 17
-7 33 -13 37 -12 4 1 5 -4 2 -11 -3 -8 2 -14 10 -14 8 0 12 5 9 11 -3 6 5 1
19 -12 13 -12 28 -19 31 -15 4 3 7 1 7 -5 0 -7 3 -11 8 -10 4 1 17 -3 30 -10
12 -7 27 -10 32 -7 6 3 10 -2 10 -12 0 -12 3 -14 8 -6 5 8 11 8 24 -1 10 -7
14 -17 10 -21 -4 -5 -2 -5 5 -1 12 7 115 -32 121 -46 2 -4 10 -4 18 -1 8 3 14
0 14 -6 0 -6 7 -8 15 -5 8 4 15 1 15 -6 0 -6 4 -9 9 -5 5 3 13 0 16 -6 4 -5
14 -8 22 -5 8 3 12 2 8 -3 -6 -11 50 -25 65 -16 6 4 9 1 8 -7 -2 -7 4 -14 12
-14 8 -1 20 -3 25 -4 6 -1 13 -2 18 -1 4 0 7 -3 7 -8 0 -5 11 -8 25 -6 15 1
29 -4 35 -14 4 -9 12 -13 16 -9 4 5 13 3 21 -3 7 -6 13 -8 13 -4 0 4 6 2 14
-4 8 -6 28 -13 45 -14 17 -1 31 -6 31 -10 0 -5 5 -5 10 -2 6 3 10 2 10 -4 0
-5 14 -8 30 -6 17 2 28 0 25 -4 -3 -5 2 -12 11 -15 10 -4 13 -2 8 7 -6 9 -4 9
7 2 8 -6 28 -12 44 -14 17 -2 32 -6 35 -10 3 -4 16 -7 30 -6 14 0 28 -4 32 -9
3 -5 26 -11 50 -13 23 -3 45 -8 48 -11 3 -4 16 -8 30 -9 69 -6 80 -9 80 -16 0
-5 4 -6 9 -2 5 3 12 1 15 -3 3 -5 17 -7 31 -4 16 3 25 0 25 -9 0 -10 3 -10 12
-1 9 9 14 7 24 -6 9 -11 13 -12 14 -4 0 9 8 9 35 -3 25 -10 34 -11 29 -2 -4 7
3 3 16 -8 l23 -20 -6 20 c-6 17 -5 18 5 4 7 -9 19 -14 26 -11 7 2 20 -2 29
-10 12 -9 15 -9 9 0 -4 6 -2 12 3 12 6 0 11 -6 11 -12 0 -10 3 -9 9 1 6 9 10
10 12 2 3 -7 34 -12 77 -14 39 -1 72 -6 72 -11 0 -5 6 -3 14 3 11 9 16 9 22 0
5 -8 3 -9 -6 -4 -8 5 -11 4 -7 -2 3 -5 20 -8 37 -5 17 2 37 -2 47 -9 9 -8 14
-9 10 -3 -4 7 8 10 34 10 21 0 39 -4 39 -8 0 -11 23 -6 32 7 5 6 8 6 8 -2 0
-6 9 -9 23 -6 18 4 19 3 7 -6 -8 -6 -11 -11 -6 -11 5 0 19 8 30 17 20 17 20
17 7 0 -13 -16 -12 -18 10 -15 13 2 30 7 38 12 10 6 12 5 7 -2 -5 -9 67 -12
284 -11 218 0 289 4 284 12 -5 8 -2 8 7 0 16 -16 29 -17 29 -2 0 5 -5 7 -12 3
-7 -5 -8 -3 -4 5 6 9 13 8 29 -6 11 -10 17 -13 14 -7 -9 16 6 19 80 19 45 0
63 4 63 13 0 7 5 10 10 7 6 -4 7 -12 3 -18 -4 -8 -1 -8 9 1 9 7 47 15 84 18
38 3 72 8 75 10 4 2 10 -2 12 -8 4 -10 6 -9 6 1 1 11 4 11 18 0 9 -8 14 -9 10
-3 -4 7 0 14 8 18 8 3 17 1 20 -4 4 -7 13 -7 24 0 12 6 22 5 31 -3 9 -8 11 -9
6 0 -4 8 6 11 34 9 22 -2 40 1 40 5 0 4 14 14 30 23 17 8 27 10 24 4 -5 -7 -1
-9 9 -5 9 3 18 1 21 -6 3 -9 5 -9 5 0 1 7 8 10 16 7 8 -4 15 -2 15 3 0 5 14
10 32 11 17 2 36 6 42 11 6 5 19 7 29 6 9 -2 17 0 17 4 0 4 12 7 28 6 15 0 38
5 51 12 20 9 28 10 40 0 11 -9 13 -9 8 0 -4 6 -3 14 3 18 5 3 10 0 10 -7 0 -9
3 -9 10 2 5 8 10 11 10 6 0 -5 6 -4 13 1 6 6 22 9 34 8 13 -1 19 3 16 8 -4 6
0 8 10 4 10 -3 17 -2 17 3 0 5 6 7 13 4 8 -3 27 1 43 7 16 7 37 13 47 14 9 2
22 3 28 4 5 0 8 4 6 9 -3 4 11 7 30 8 19 0 38 5 41 11 4 6 15 9 25 7 9 -1 24
4 32 13 9 9 15 10 15 3 0 -7 6 -5 16 4 19 19 28 21 18 4 -6 -10 -4 -10 7 0 7
6 21 12 32 12 10 0 16 3 14 8 -3 4 6 8 20 9 14 0 29 7 34 15 7 10 9 10 9 -2 1
-13 2 -13 13 1 7 9 22 15 34 14 12 -1 20 2 17 7 -3 4 3 8 13 8 11 0 24 5 31
12 7 7 12 8 12 2 0 -5 4 -3 8 3 4 7 17 14 29 16 12 1 27 8 35 15 8 6 29 13 47
14 18 1 37 8 43 15 6 7 14 10 19 7 5 -3 9 0 9 6 0 7 7 9 16 6 10 -4 13 -2 8 6
-5 7 -2 9 9 5 9 -3 18 0 21 9 3 8 11 13 18 12 7 -2 12 2 11 9 -2 7 6 10 17 8
11 -2 20 1 20 6 0 6 5 7 10 4 6 -3 10 -1 10 5 0 6 5 8 12 4 6 -4 17 1 25 11 7
11 13 15 13 9 0 -5 5 -2 10 6 7 11 10 11 10 2 0 -7 11 -2 28 13 15 14 33 23
40 20 7 -2 15 2 18 10 4 8 10 12 15 9 5 -3 9 0 9 6 0 6 4 9 9 6 4 -3 16 1 27
8 10 8 24 12 31 9 7 -3 13 0 13 7 0 6 5 8 10 5 6 -3 10 -1 10 4 0 6 5 11 11
11 6 0 24 9 40 21 16 11 29 17 29 14 0 -4 7 0 15 7 34 30 50 43 52 41 9 -9 23
-1 17 9 -4 6 -3 8 3 5 6 -4 21 2 33 13 13 11 27 21 32 21 4 1 13 2 19 3 6 0
16 9 23 19 7 9 18 17 25 17 6 0 11 5 11 10 0 6 6 9 13 8 6 -2 11 2 10 9 -2 8
4 10 14 6 11 -4 14 -3 9 5 -5 8 0 12 13 12 11 0 26 6 33 13 7 6 25 18 40 26
15 8 25 18 22 23 -3 4 3 8 13 8 10 0 25 9 33 19 7 11 17 18 21 16 4 -3 21 9
39 25 18 17 36 30 42 30 5 0 20 12 33 26 14 15 25 23 25 18 0 -5 10 2 21 16
11 14 18 18 14 10 -4 -8 3 -3 15 13 12 15 26 25 30 22 5 -3 14 4 20 16 7 11
14 19 16 16 5 -5 39 21 87 68 17 17 34 29 37 29 3 -1 4 2 2 8 -1 5 2 7 7 4 5
-4 17 4 25 16 9 12 16 18 16 13 0 -6 5 -2 11 8 6 9 14 15 20 12 5 -3 6 1 3 9
-4 11 0 16 14 16 12 0 23 9 27 20 3 11 10 19 14 17 4 -1 19 10 33 25 14 15 27
26 29 23 3 -2 13 9 24 25 11 16 28 31 38 34 11 2 16 9 12 15 -3 6 -2 11 3 11
5 0 23 14 40 30 18 17 36 30 42 30 5 0 7 7 4 15 -4 8 -1 15 5 15 12 0 52 36
46 42 -2 2 9 12 26 23 16 11 29 24 29 28 0 14 27 37 35 29 4 -4 5 0 3 8 -1 8
3 14 10 12 6 -1 11 1 10 5 -4 12 28 54 35 46 4 -3 7 3 7 15 0 12 4 21 8 20 10
-3 62 51 62 64 0 5 5 6 10 3 6 -3 10 1 10 9 0 9 4 16 9 16 5 0 13 9 16 20 4
11 11 18 16 15 5 -4 9 -1 9 4 0 6 8 19 18 29 33 36 57 67 57 77 1 6 6 9 13 7
7 -1 12 4 12 11 0 7 9 23 20 35 11 12 20 26 20 32 0 5 7 10 16 10 8 0 13 4 10
9 -3 5 6 21 19 35 14 15 25 31 25 35 0 4 11 20 24 34 13 14 21 28 18 31 -3 3
0 6 7 6 7 0 9 5 6 10 -3 6 -1 10 4 10 6 0 11 7 11 16 0 8 5 12 10 9 6 -3 10 0
10 8 0 8 11 27 25 43 14 16 25 33 25 37 0 5 7 15 15 24 8 8 12 19 9 25 -4 6
-3 8 3 5 9 -6 30 26 31 47 0 5 7 13 16 18 9 5 16 14 16 20 0 6 8 17 18 25 10
8 11 11 2 7 -8 -5 -2 9 14 31 16 21 23 35 15 30 -9 -5 -7 -1 4 12 9 11 14 23
10 26 -3 4 1 7 10 7 10 0 16 3 16 8 -3 19 2 33 11 27 5 -3 7 0 4 8 -3 8 2 17
11 21 9 3 13 10 10 16 -3 5 -1 10 4 10 6 0 10 3 10 8 -3 19 2 33 10 27 5 -3
13 0 17 6 4 8 3 9 -4 5 -7 -4 -12 -2 -12 3 0 6 5 11 11 11 5 0 7 5 4 10 -3 6
-1 10 5 10 6 0 8 5 5 10 -3 6 -2 10 3 10 6 0 13 11 16 25 4 14 11 25 17 25 7
0 6 6 -2 17 -10 12 -10 15 -1 9 13 -8 34 32 24 48 -3 5 0 6 6 2 7 -4 12 -2 12
5 0 7 8 21 18 32 9 11 11 17 5 13 -7 -4 -13 -3 -13 2 0 6 7 13 16 16 8 3 13
10 9 15 -3 5 0 13 6 16 5 4 8 14 5 22 -3 8 -1 11 4 8 6 -3 10 3 10 14 0 10 5
21 10 23 6 2 12 13 13 25 0 13 7 25 14 27 7 3 10 12 7 21 -3 8 -1 15 6 15 6 0
8 5 5 10 -3 6 -1 10 5 10 6 0 9 3 6 8 -2 4 6 30 20 57 13 27 26 62 30 77 3 16
9 28 12 28 4 0 8 12 9 26 0 15 6 29 11 33 5 3 10 15 10 26 -1 47 3 66 12 60 6
-4 8 6 6 24 -3 28 14 58 26 46 3 -3 4 6 3 20 -2 14 1 25 6 25 6 0 8 4 4 9 -3
5 -1 12 5 16 6 4 8 10 5 15 -7 11 5 41 14 35 4 -2 7 11 6 30 -1 19 2 32 6 29
5 -3 10 4 10 15 3 40 5 46 19 43 11 -3 11 0 0 12 -7 10 -8 16 -2 16 6 0 9 9 7
20 -2 11 -1 20 3 20 4 0 8 8 9 18 2 25 7 45 16 60 5 6 5 17 2 23 -4 6 1 16 11
23 10 8 13 15 7 19 -6 4 -8 18 -6 32 3 13 8 23 12 21 4 -3 8 4 8 15 1 13 -2
17 -10 12 -7 -4 -6 0 2 10 7 9 11 23 8 32 -4 8 -2 17 4 20 5 4 7 11 4 16 -4 5
-1 9 6 9 8 0 8 4 -1 15 -10 12 -9 16 4 21 12 5 13 10 5 25 -6 11 -6 19 0 19 5
0 7 10 3 22 -3 14 -1 19 6 14 7 -4 9 6 8 29 -2 19 1 32 5 29 5 -3 6 9 2 27 -4
22 -3 30 5 26 6 -5 8 1 4 15 -4 16 -2 19 9 13 11 -7 12 -6 2 6 -10 12 -10 18
0 29 10 10 9 11 -2 5 -10 -6 -12 -4 -6 6 5 7 11 32 13 54 2 22 7 44 10 50 4 5
7 28 7 50 -1 22 4 43 10 47 6 5 5 8 -4 8 -11 0 -10 4 3 19 13 14 14 21 5 27
-8 5 -10 3 -4 -6 6 -9 4 -11 -4 -6 -9 6 -8 13 6 29 12 14 13 18 3 12 -13 -7
-13 -6 -2 7 9 11 10 18 2 23 -6 4 -7 12 -1 24 6 9 8 26 7 37 -2 10 1 27 6 37
6 12 5 17 -4 17 -10 0 -9 3 1 9 8 5 16 17 17 25 1 9 -2 14 -7 10 -5 -3 -9 2
-9 11 0 9 5 13 10 10 6 -3 10 -1 10 4 0 6 -4 11 -10 11 -5 0 -10 5 -10 11 0 5
5 7 10 4 6 -3 10 -2 10 4 0 5 -6 12 -12 14 -10 4 -10 6 0 6 10 1 12 50 12 226
-1 171 -4 224 -13 218 -8 -4 -7 -1 1 9 10 13 10 17 0 21 -10 4 -10 6 0 6 7 1
12 15 12 34 0 18 -6 39 -12 46 -10 11 -10 13 0 7 6 -4 12 -2 12 3 0 6 -5 11
-12 11 -6 0 -8 3 -5 6 3 4 1 16 -4 27 -8 15 -8 22 2 28 8 5 9 9 3 9 -6 0 -10
11 -9 24 2 13 -1 29 -5 37 -5 7 -5 21 0 30 7 11 5 20 -3 27 -7 6 -12 32 -11
61 0 28 -4 51 -9 51 -5 0 -4 6 2 14 8 10 9 16 1 21 -15 9 -13 38 3 30 6 -4 5
-1 -4 7 -9 7 -14 18 -12 25 2 6 -1 14 -6 18 -8 4 -8 12 -1 26 6 11 7 19 1 19
-5 0 -8 14 -7 30 1 17 -1 30 -4 30 -3 0 -5 15 -5 33 1 17 -5 43 -13 56 -8 13
-9 20 -3 17 6 -4 11 -2 11 3 0 6 -5 11 -11 11 -5 0 -7 5 -4 10 3 6 0 10 -7 10
-10 0 -10 2 1 9 9 6 10 10 2 16 -9 5 -9 11 1 23 10 12 10 14 1 8 -8 -4 -14 -2
-14 6 -1 7 -3 27 -4 43 -2 17 -4 30 -5 30 -1 0 -3 17 -4 38 -1 21 -9 43 -17
48 -10 6 -11 9 -1 9 8 0 10 5 6 12 -7 11 -11 27 -16 66 -1 6 -5 12 -9 12 -5 0
-6 6 -3 13 3 8 -2 20 -11 27 -12 10 -13 16 -4 26 6 8 7 14 2 14 -8 0 -12 15
-15 58 -1 6 -5 12 -9 12 -5 0 -6 7 -3 15 4 9 0 15 -7 15 -11 0 -11 3 1 10 11
7 11 10 2 10 -8 0 -10 5 -6 12 5 8 1 9 -12 4 -15 -6 -16 -5 -7 5 8 8 9 18 2
30 -5 10 -12 38 -15 61 -3 24 -10 47 -15 53 -5 5 -9 20 -9 33 0 13 -4 20 -10
17 -6 -4 -10 8 -10 28 0 19 -7 40 -15 47 -9 7 -13 15 -10 18 3 3 0 11 -6 19
-6 7 -8 13 -4 13 4 0 2 7 -5 15 -7 8 -9 15 -6 15 4 0 1 7 -8 15 -8 8 -13 24
-11 35 2 12 -2 20 -10 20 -9 0 -12 6 -8 15 3 9 -2 22 -13 30 -15 11 -16 14 -4
15 12 0 13 2 1 9 -7 5 -10 14 -7 20 4 6 2 11 -3 11 -6 0 -11 7 -11 16 0 8 -4
13 -9 10 -5 -4 -7 3 -4 14 3 12 0 20 -6 20 -7 0 -9 5 -6 10 3 6 1 10 -4 10 -6
0 -10 3 -9 8 4 11 -44 112 -53 112 -4 0 -6 9 -4 20 2 11 -1 19 -7 17 -6 -1
-12 7 -14 17 -1 10 -9 23 -16 27 -7 5 -10 9 -5 9 4 0 -2 16 -13 37 -10 20 -16
41 -13 46 3 6 1 7 -5 3 -11 -7 -14 -3 -16 27 -1 6 -9 20 -20 29 -10 9 -19 29
-20 43 0 14 -7 25 -15 25 -8 0 -12 3 -8 6 3 4 -1 13 -9 21 -8 8 -12 18 -9 23
3 4 -2 11 -11 14 -8 3 -12 10 -9 16 3 5 3 10 -2 10 -4 0 -15 15 -22 33 -8 17
-23 40 -34 50 -11 9 -15 17 -8 17 7 0 9 5 6 10 -4 6 -11 7 -17 4 -7 -5 -9 0
-6 14 4 12 1 25 -4 29 -7 4 -8 1 -4 -8 4 -8 1 -5 -8 5 -8 10 -13 23 -10 27 3
5 -2 9 -11 9 -9 0 -14 4 -10 9 3 5 -2 16 -11 25 -8 9 -12 21 -9 27 4 6 -2 13
-14 16 -11 3 -19 8 -17 12 3 4 -15 36 -39 70 -25 35 -42 69 -38 75 3 6 3 8 -2
4 -9 -8 -35 15 -35 31 0 6 -4 11 -10 11 -5 0 -10 7 -10 15 0 8 -4 15 -10 15
-5 0 -10 4 -10 10 0 9 -26 44 -62 81 -12 13 -13 19 -5 23 7 2 5 5 -5 5 -9 1
-20 10 -23 21 -4 11 -11 18 -16 15 -5 -4 -9 1 -9 10 0 9 -4 14 -9 10 -6 -3 -8
4 -6 15 2 11 0 18 -6 15 -5 -4 -9 -1 -9 4 0 6 -7 11 -16 11 -8 0 -13 4 -9 9 3
5 -5 20 -17 33 -13 13 -29 34 -37 46 -8 11 -18 19 -23 16 -4 -3 -5 2 -2 10 4
11 0 16 -10 16 -9 0 -16 5 -16 10 0 12 -32 45 -51 53 -11 4 -11 6 -1 6 9 1 6
8 -7 22 -11 12 -24 18 -30 15 -6 -4 -8 2 -6 14 2 11 0 18 -4 15 -11 -6 -33 20
-24 28 3 4 -5 7 -18 7 -19 0 -21 2 -9 10 13 8 12 10 -2 10 -10 0 -18 8 -18 18
0 14 -2 15 -10 2 -5 -8 -10 -10 -10 -4 0 13 -34 54 -45 54 -4 0 -28 21 -54 48
-25 26 -52 48 -59 49 -19 4 -122 110 -114 119 4 4 1 4 -5 0 -8 -4 -17 2 -25
18 -6 14 -16 26 -21 26 -5 0 -31 23 -58 50 -27 28 -51 50 -54 50 -12 0 -34 28
-28 34 4 3 1 6 -5 6 -7 0 -14 0 -17 0 -11 0 -50 46 -47 55 2 5 1 7 -3 3 -7 -7
-18 0 -60 39 -16 16 -25 19 -28 10 -3 -7 -6 -4 -6 6 -1 9 -5 17 -9 17 -5 0
-23 13 -42 30 -18 16 -35 28 -38 25 -6 -6 -32 22 -32 35 0 6 -4 9 -9 5 -5 -3
-16 1 -24 9 -8 8 -17 12 -21 9 -3 -4 -6 -1 -6 6 0 6 -12 16 -26 21 -14 6 -23
14 -19 19 3 6 -4 8 -15 6 -11 -2 -18 0 -15 5 3 5 -4 11 -15 15 -11 3 -20 10
-20 15 0 5 -7 7 -15 4 -10 -4 -15 0 -15 11 0 9 -5 13 -10 10 -6 -3 -13 0 -16
9 -3 8 -11 13 -19 10 -7 -3 -15 2 -18 10 -4 9 -13 16 -22 16 -8 0 -15 5 -15
10 0 6 -7 10 -15 10 -9 0 -18 7 -21 15 -4 8 -10 12 -15 9 -5 -3 -9 0 -9 5 0 6
-7 11 -15 11 -7 0 -19 8 -24 18 -6 9 -11 13 -11 9 0 -5 -7 -1 -16 8 -9 9 -24
13 -32 10 -9 -3 -13 -3 -9 1 9 9 -73 65 -85 58 -4 -3 -8 0 -8 5 0 6 -6 11 -13
11 -7 0 -22 8 -33 18 -10 9 -26 17 -34 17 -8 0 -14 5 -13 12 2 7 -4 10 -12 7
-8 -4 -15 -1 -15 6 0 7 -7 10 -15 6 -8 -3 -15 -1 -15 4 0 6 -9 10 -21 10 -13
0 -18 4 -13 12 5 7 0 9 -14 6 -13 -4 -23 0 -26 9 -4 8 -13 13 -21 9 -9 -3 -20
2 -26 12 -8 13 -21 17 -43 14 -24 -3 -28 -1 -16 7 12 8 8 11 -17 11 -17 0 -35
5 -38 10 -4 7 -13 6 -27 -1 -11 -6 -18 -7 -14 -1 8 14 -30 22 -43 9 -8 -8 -11
-7 -11 2 0 7 -5 9 -10 6 -6 -4 -9 -1 -8 7 2 7 -3 12 -10 10 -8 -1 -11 2 -8 7
4 5 -8 20 -26 32 -17 13 -28 18 -24 11 4 -7 2 -12 -3 -12 -6 0 -11 5 -11 10 0
6 -9 10 -20 10 -11 0 -20 5 -20 11 0 5 -4 7 -10 4 -5 -3 -10 -2 -10 3 0 5 -7
9 -15 10 -8 1 -22 3 -30 4 -8 1 -15 5 -15 10 0 5 -4 6 -10 3 -5 -3 -10 -1 -10
6 0 8 -5 7 -17 -2 -9 -8 -14 -9 -10 -3 8 13 -19 27 -34 18 -5 -3 -9 -1 -9 4 0
5 -12 14 -26 20 -18 9 -23 9 -18 1 4 -7 -3 -6 -17 2 -13 7 -27 12 -31 11 -5
-1 -8 3 -8 9 0 6 -7 9 -15 5 -8 -3 -15 -1 -15 5 0 6 -7 9 -15 5 -8 -3 -15 -1
-15 5 0 6 -5 7 -11 4 -5 -4 -18 0 -27 8 -10 9 -30 14 -45 13 -15 -2 -27 1 -27
6 0 6 -6 8 -14 5 -7 -3 -18 -1 -24 5 -6 6 -21 11 -34 12 -14 1 -22 7 -20 16 3
11 1 12 -8 4 -13 -13 -50 -7 -50 8 0 6 -7 5 -15 -2 -10 -9 -15 -9 -15 -1 0 6
-13 11 -30 11 -17 0 -30 5 -30 13 0 8 -4 7 -10 -3 -6 -10 -10 -11 -10 -2 0 7
-13 12 -31 12 -16 0 -28 3 -26 8 5 7 -28 12 -80 12 -13 0 -23 5 -23 11 0 7 -6
7 -17 -2 -10 -8 -14 -9 -10 -2 4 6 3 14 -3 18 -5 3 -10 1 -10 -5 0 -6 -5 -8
-12 -3 -7 4 -21 6 -30 5 -10 -2 -18 1 -18 5 0 9 -16 11 -93 15 -27 1 -36 6
-33 15 4 10 1 11 -12 4 -10 -5 -24 -6 -31 -2 -7 5 -26 7 -42 6 -16 -1 -29 2
-29 7 0 6 -7 5 -15 -2 -12 -10 -16 -9 -21 4 -6 15 -8 15 -21 -1 -8 -10 -12
-13 -9 -6 4 6 2 14 -4 18 -5 3 -10 1 -10 -5 0 -7 -5 -8 -12 -3 -7 4 -20 8 -28
8 -8 0 -21 4 -27 8 -8 5 -13 3 -13 -4 0 -10 -3 -10 -12 -1 -15 15 -32 16 -22
1 3 -6 -6 -3 -22 7 -27 19 -28 19 -21 0 7 -19 7 -19 -10 -4 -13 12 -33 16 -66
14 -26 -1 -50 0 -52 3 -10 9 -35 9 -35 0 0 -6 -7 -6 -19 0 -10 6 -21 8 -23 5
-3 -2 -17 0 -30 5 -19 7 -31 6 -49 -7 -20 -13 -22 -13 -12 -1 11 14 8 16 -22
16 -22 0 -32 -4 -28 -11 4 -6 0 -5 -9 1 -18 15 -448 16 -448 1 0 -5 -5 -6 -10
-3 -6 4 -17 2 -25 -5 -10 -8 -15 -8 -21 1 -5 8 -3 9 6 4 9 -5 11 -4 6 3 -9 15
-13 15 -21 1z"/>
<path d="M15125 10980 c3 -5 8 -10 11 -10 2 0 4 5 4 10 0 6 -5 10 -11 10 -5 0
-7 -4 -4 -10z"/>
</g>
</svg>
