<svg id="visual" viewBox="0 0 1080 1920" width="1080" height="1920" xmlns="http://www.w3.org/2000/svg" xmlns:xlink="http://www.w3.org/1999/xlink" version="1.1"><rect x="0" y="0" width="1080" height="1920" fill="#001220"></rect><defs><linearGradient id="grad1_0" x1="0%" y1="0%" x2="100%" y2="100%"><stop offset="30%" stop-color="#146ff6" stop-opacity="1"></stop><stop offset="70%" stop-color="#146ff6" stop-opacity="1"></stop></linearGradient></defs><defs><linearGradient id="grad1_1" x1="0%" y1="0%" x2="100%" y2="100%"><stop offset="30%" stop-color="#146ff6" stop-opacity="1"></stop><stop offset="70%" stop-color="#005abe" stop-opacity="1"></stop></linearGradient></defs><defs><linearGradient id="grad1_2" x1="0%" y1="0%" x2="100%" y2="100%"><stop offset="30%" stop-color="#004286" stop-opacity="1"></stop><stop offset="70%" stop-color="#005abe" stop-opacity="1"></stop></linearGradient></defs><defs><linearGradient id="grad1_3" x1="0%" y1="0%" x2="100%" y2="100%"><stop offset="30%" stop-color="#004286" stop-opacity="1"></stop><stop offset="70%" stop-color="#002a50" stop-opacity="1"></stop></linearGradient></defs><defs><linearGradient id="grad1_4" x1="0%" y1="0%" x2="100%" y2="100%"><stop offset="30%" stop-color="#001220" stop-opacity="1"></stop><stop offset="70%" stop-color="#002a50" stop-opacity="1"></stop></linearGradient></defs><defs><linearGradient id="grad2_0" x1="0%" y1="0%" x2="100%" y2="100%"><stop offset="30%" stop-color="#146ff6" stop-opacity="1"></stop><stop offset="70%" stop-color="#146ff6" stop-opacity="1"></stop></linearGradient></defs><defs><linearGradient id="grad2_1" x1="0%" y1="0%" x2="100%" y2="100%"><stop offset="30%" stop-color="#005abe" stop-opacity="1"></stop><stop offset="70%" stop-color="#146ff6" stop-opacity="1"></stop></linearGradient></defs><defs><linearGradient id="grad2_2" x1="0%" y1="0%" x2="100%" y2="100%"><stop offset="30%" stop-color="#005abe" stop-opacity="1"></stop><stop offset="70%" stop-color="#004286" stop-opacity="1"></stop></linearGradient></defs><defs><linearGradient id="grad2_3" x1="0%" y1="0%" x2="100%" y2="100%"><stop offset="30%" stop-color="#002a50" stop-opacity="1"></stop><stop offset="70%" stop-color="#004286" stop-opacity="1"></stop></linearGradient></defs><defs><linearGradient id="grad2_4" x1="0%" y1="0%" x2="100%" y2="100%"><stop offset="30%" stop-color="#002a50" stop-opacity="1"></stop><stop offset="70%" stop-color="#001220" stop-opacity="1"></stop></linearGradient></defs><g transform="translate(1080, 0)"><path d="M0 810C-91 806 -182 802 -243.5 749.4C-305 696.8 -337.1 595.6 -392.1 539.6C-447 483.6 -524.9 472.9 -597.1 433.8C-669.3 394.7 -735.8 327.3 -770.4 250.3C-804.9 173.3 -807.5 86.6 -810 0L0 0Z" fill="#001e37"></path><path d="M0 648C-72.8 644.8 -145.6 641.6 -194.8 599.5C-244 557.5 -269.7 476.5 -313.6 431.7C-357.6 386.9 -419.9 378.3 -477.6 347C-535.4 315.8 -588.6 261.9 -616.3 200.2C-643.9 138.6 -646 69.3 -648 0L0 0Z" fill="#00366b"></path><path d="M0 486C-54.6 483.6 -109.2 481.2 -146.1 449.7C-183 418.1 -202.3 357.4 -235.2 323.8C-268.2 290.2 -314.9 283.7 -358.2 260.3C-401.6 236.8 -441.5 196.4 -462.2 150.2C-482.9 104 -484.5 52 -486 0L0 0Z" fill="#004ea2"></path><path d="M0 324C-36.4 322.4 -72.8 320.8 -97.4 299.8C-122 278.7 -134.8 238.2 -156.8 215.8C-178.8 193.4 -209.9 189.1 -238.8 173.5C-267.7 157.9 -294.3 130.9 -308.1 100.1C-322 69.3 -323 34.7 -324 0L0 0Z" fill="#0065da"></path><path d="M0 162C-18.2 161.2 -36.4 160.4 -48.7 149.9C-61 139.4 -67.4 119.1 -78.4 107.9C-89.4 96.7 -105 94.6 -119.4 86.8C-133.9 78.9 -147.2 65.5 -154.1 50.1C-161 34.7 -161.5 17.3 -162 0L0 0Z" fill="#146ff6"></path></g><g transform="translate(0, 1920)"><path d="M0 -810C74.6 -742.6 149.1 -675.3 202.4 -622.9C255.7 -570.6 287.7 -533.3 380.9 -524.2C474.1 -515.2 628.5 -534.2 655.3 -476.1C682.1 -418 581.3 -282.6 585.9 -190.4C590.4 -98.1 700.2 -49.1 810 0L0 0Z" fill="#001e37"></path><path d="M0 -648C59.7 -594.1 119.3 -540.2 161.9 -498.4C204.5 -456.5 230.1 -426.7 304.7 -419.4C379.3 -412.1 502.8 -427.4 524.2 -380.9C545.7 -334.4 465.1 -226.1 468.7 -152.3C472.3 -78.5 560.1 -39.3 648 0L0 0Z" fill="#00366b"></path><path d="M0 -486C44.7 -445.6 89.5 -405.2 121.4 -373.8C153.4 -342.4 172.6 -320 228.5 -314.5C284.5 -309.1 377.1 -320.5 393.2 -285.7C409.3 -250.8 348.8 -169.5 351.5 -114.2C354.2 -58.9 420.1 -29.4 486 0L0 0Z" fill="#004ea2"></path><path d="M0 -324C29.8 -297.1 59.7 -270.1 81 -249.2C102.3 -228.2 115.1 -213.3 152.4 -209.7C189.6 -206.1 251.4 -213.7 262.1 -190.4C272.8 -167.2 232.5 -113 234.3 -76.1C236.1 -39.3 280.1 -19.6 324 0L0 0Z" fill="#0065da"></path><path d="M0 -162C14.9 -148.5 29.8 -135.1 40.5 -124.6C51.1 -114.1 57.5 -106.7 76.2 -104.8C94.8 -103 125.7 -106.8 131.1 -95.2C136.4 -83.6 116.3 -56.5 117.2 -38.1C118.1 -19.6 140 -9.8 162 0L0 0Z" fill="#146ff6"></path></g></svg>