<svg id="visual" viewBox="0 0 1920 1080" width="1920" height="1080" xmlns="http://www.w3.org/2000/svg" xmlns:xlink="http://www.w3.org/1999/xlink" version="1.1"><rect x="0" y="0" width="1920" height="1080" fill="#001220"></rect><path d="M0 760L45.7 764.7C91.3 769.3 182.7 778.7 274.2 765.8C365.7 753 457.3 718 548.8 698C640.3 678 731.7 673 823 679.8C914.3 686.7 1005.7 705.3 1097 715.8C1188.3 726.3 1279.7 728.7 1371.2 729.8C1462.7 731 1554.3 731 1645.8 738.5C1737.3 746 1828.7 761 1874.3 768.5L1920 776L1920 1081L1874.3 1081C1828.7 1081 1737.3 1081 1645.8 1081C1554.3 1081 1462.7 1081 1371.2 1081C1279.7 1081 1188.3 1081 1097 1081C1005.7 1081 914.3 1081 823 1081C731.7 1081 640.3 1081 548.8 1081C457.3 1081 365.7 1081 274.2 1081C182.7 1081 91.3 1081 45.7 1081L0 1081Z" fill="#659dfe"></path><path d="M0 722L45.7 739.5C91.3 757 182.7 792 274.2 801.2C365.7 810.3 457.3 793.7 548.8 776.7C640.3 759.7 731.7 742.3 823 745C914.3 747.7 1005.7 770.3 1097 790.7C1188.3 811 1279.7 829 1371.2 835C1462.7 841 1554.3 835 1645.8 815.5C1737.3 796 1828.7 763 1874.3 746.5L1920 730L1920 1081L1874.3 1081C1828.7 1081 1737.3 1081 1645.8 1081C1554.3 1081 1462.7 1081 1371.2 1081C1279.7 1081 1188.3 1081 1097 1081C1005.7 1081 914.3 1081 823 1081C731.7 1081 640.3 1081 548.8 1081C457.3 1081 365.7 1081 274.2 1081C182.7 1081 91.3 1081 45.7 1081L0 1081Z" fill="#4386fb"></path><path d="M0 917L45.7 912.8C91.3 908.7 182.7 900.3 274.2 898C365.7 895.7 457.3 899.3 548.8 883.2C640.3 867 731.7 831 823 825.5C914.3 820 1005.7 845 1097 859.2C1188.3 873.3 1279.7 876.7 1371.2 877.7C1462.7 878.7 1554.3 877.3 1645.8 868.5C1737.3 859.7 1828.7 843.3 1874.3 835.2L1920 827L1920 1081L1874.3 1081C1828.7 1081 1737.3 1081 1645.8 1081C1554.3 1081 1462.7 1081 1371.2 1081C1279.7 1081 1188.3 1081 1097 1081C1005.7 1081 914.3 1081 823 1081C731.7 1081 640.3 1081 548.8 1081C457.3 1081 365.7 1081 274.2 1081C182.7 1081 91.3 1081 45.7 1081L0 1081Z" fill="#146ff6"></path><path d="M0 905L45.7 916.8C91.3 928.7 182.7 952.3 274.2 952C365.7 951.7 457.3 927.3 548.8 914.7C640.3 902 731.7 901 823 910.2C914.3 919.3 1005.7 938.7 1097 934.2C1188.3 929.7 1279.7 901.3 1371.2 893.2C1462.7 885 1554.3 897 1645.8 903.8C1737.3 910.7 1828.7 912.3 1874.3 913.2L1920 914L1920 1081L1874.3 1081C1828.7 1081 1737.3 1081 1645.8 1081C1554.3 1081 1462.7 1081 1371.2 1081C1279.7 1081 1188.3 1081 1097 1081C1005.7 1081 914.3 1081 823 1081C731.7 1081 640.3 1081 548.8 1081C457.3 1081 365.7 1081 274.2 1081C182.7 1081 91.3 1081 45.7 1081L0 1081Z" fill="#0760d5"></path><path d="M0 1015L45.7 1005.8C91.3 996.7 182.7 978.3 274.2 978.7C365.7 979 457.3 998 548.8 1006.8C640.3 1015.7 731.7 1014.3 823 1016.7C914.3 1019 1005.7 1025 1097 1025.8C1188.3 1026.7 1279.7 1022.3 1371.2 1021.3C1462.7 1020.3 1554.3 1022.7 1645.8 1023.7C1737.3 1024.7 1828.7 1024.3 1874.3 1024.2L1920 1024L1920 1081L1874.3 1081C1828.7 1081 1737.3 1081 1645.8 1081C1554.3 1081 1462.7 1081 1371.2 1081C1279.7 1081 1188.3 1081 1097 1081C1005.7 1081 914.3 1081 823 1081C731.7 1081 640.3 1081 548.8 1081C457.3 1081 365.7 1081 274.2 1081C182.7 1081 91.3 1081 45.7 1081L0 1081Z" fill="#0052b5"></path></svg>